<?xml version="1.0" encoding="UTF-8"?>
<svg version="1.1" xmlns="http://www.w3.org/2000/svg" width="500" height="500">
<path d="M0 0 C3.96 0 7.92 0 12 0 C13.32 2.97 14.64 5.94 16 9 C17.65 6.03 19.3 3.06 21 0 C24.63 0 28.26 0 32 0 C31.67 1.32 31.34 2.64 31 4 C30.85966422 5.439735 30.75583143 6.88337149 30.68359375 8.328125 C30.64169922 9.12734375 30.59980469 9.9265625 30.55664062 10.75 C30.51732422 11.575 30.47800781 12.4 30.4375 13.25 C30.37272461 14.51070312 30.37272461 14.51070312 30.30664062 15.796875 C30.20091457 17.86440671 30.09998705 19.93218281 30 22 C30.66 22 31.32 22 32 22 C32 22.99 32 23.98 32 25 C32.66 25.33 33.32 25.66 34 26 C34.495 35.405 34.495 35.405 35 45 C35.66 44.67 36.32 44.34 37 44 C37.46954261 40.95418731 37.46954261 40.95418731 37.625 37.4375 C37.69976562 36.23996094 37.77453125 35.04242188 37.8515625 33.80859375 C37.92503906 32.41833984 37.92503906 32.41833984 38 31 C37.34 31 36.68 31 36 31 C36.33 29.68 36.66 28.36 37 27 C38.60049704 26.60963487 40.20562371 26.23821381 41.8125 25.875 C42.70582031 25.66617188 43.59914063 25.45734375 44.51953125 25.2421875 C47 25 47 25 50 27 C50.43237305 28.87939453 50.43237305 28.87939453 50.51171875 31.1328125 C50.54716797 31.93847656 50.58261719 32.74414062 50.61914062 33.57421875 C50.64169922 34.41597656 50.66425781 35.25773437 50.6875 36.125 C50.72166016 36.97449219 50.75582031 37.82398438 50.79101562 38.69921875 C50.87359173 40.79901105 50.93846978 42.89948564 51 45 C51.66 45.33 52.32 45.66 53 46 C53.02709444 43.91673869 53.04643873 41.83337559 53.0625 39.75 C53.07410156 38.58984375 53.08570313 37.4296875 53.09765625 36.234375 C53.01782092 33.59022872 52.78643778 31.50173909 52 29 C55.66237411 26.52251163 58.58283259 25.37592914 63 25 C64.33333333 25.33333333 65.66666667 25.66666667 67 26 C67.928125 25.814375 68.85625 25.62875 69.8125 25.4375 C73 25 73 25 76.375 26.0625 C79.95889943 26.98937054 80.75085305 27.00295593 84.0625 26 C88.00790236 24.84003644 90.27708315 24.96931808 94 27 C96.375 30.125 96.375 30.125 98 33 C98.45375 32.236875 98.9075 31.47375 99.375 30.6875 C103.07035834 26.90415694 106.80112146 25.70790001 112 25 C115.83196592 25.35161118 119.32093831 26.41553788 122.94140625 27.67578125 C126.44626647 28.22778011 129.39375314 26.67985788 132.66015625 25.49609375 C133.43230469 25.33238281 134.20445312 25.16867188 135 25 C135.99 25.66 136.98 26.32 138 27 C139.0725 26.67 140.145 26.34 141.25 26 C145 25 145 25 148.4375 26 C152.01262105 27.00354275 152.74157505 27.01016729 156.0625 26 C159.95613473 24.8205689 162.25750084 25.21785754 166 27 C166.99 27.99 166.99 27.99 168 29 C168.66 28.34 169.32 27.68 170 27 C172.53125 26.296875 172.53125 26.296875 175.5 25.75 C176.4796875 25.55921875 177.459375 25.3684375 178.46875 25.171875 C179.3040625 25.11515625 180.139375 25.0584375 181 25 C184.05392116 28.05392116 183.4300161 31.705499 183.5625 35.8125 C183.62292135 37.42330745 183.68663571 39.0339953 183.75390625 40.64453125 C183.77783447 41.35971924 183.8017627 42.07490723 183.82641602 42.81176758 C184.01840099 45.23196639 184.52386894 47.61934468 185 50 C165.2 50 145.4 50 125 50 C124.67 49.01 124.34 48.02 124 47 C123.27296875 47.433125 123.27296875 47.433125 122.53125 47.875 C116.86499235 51.01323501 112.51089041 52.25402753 106.046875 50.45703125 C102.30848164 49.03549932 100.02391024 47.45255277 98 44 C98.185625 44.804375 98.37125 45.60875 98.5625 46.4375 C98.7790625 47.7059375 98.7790625 47.7059375 99 49 C98 50 98 50 95.62210083 50.11352539 C94.5674765 50.10828857 93.51285217 50.10305176 92.42626953 50.09765625 C91.23478302 50.09435303 90.04329651 50.0910498 88.81570435 50.08764648 C87.51785004 50.07934814 86.21999573 50.0710498 84.8828125 50.0625 C83.54621557 50.05809704 82.20961658 50.05427968 80.87301636 50.05102539 C75.90245168 50.03762566 70.93194937 50.01346145 65.96142578 49.98962402 C61.76649201 49.96990384 57.57158168 49.95425582 53.37661362 49.94406128 C51.405121 49.93757341 49.43365147 49.92499828 47.46218872 49.91235352 C46.26439789 49.90905029 45.06660706 49.90574707 43.83251953 49.90234375 C42.77630402 49.89710693 41.7200885 49.89187012 40.63186646 49.88647461 C37.88996494 49.88387246 37.88996494 49.88387246 35 51 C27.79043089 51.57218802 27.79043089 51.57218802 24.79296875 49.40234375 C22.45917866 46.2753701 22.40473406 44.11835162 22.25 40.25 C22.19328125 39.07953125 22.1365625 37.9090625 22.078125 36.703125 C22.05234375 35.81109375 22.0265625 34.9190625 22 34 C21.01 34.495 21.01 34.495 20 35 C18.00039988 35.039992 15.99952758 35.04346799 14 35 C14.14262412 36.5627962 14.28925511 38.12522696 14.4375 39.6875 C14.51871094 40.55761719 14.59992188 41.42773438 14.68359375 42.32421875 C14.98843609 44.90220641 15.49089259 47.45446295 16 50 C5.77 50 -4.46 50 -15 50 C-15 46.66666667 -15 43.33333333 -15 40 C-20.94 40.495 -20.94 40.495 -27 41 C-27.495 43.475 -27.495 43.475 -28 46 C-27.34 46 -26.68 46 -26 46 C-26 47.32 -26 48.64 -26 50 C-29.63 50 -33.26 50 -37 50 C-37 45.84226824 -36.03730338 43.91427028 -34.14501953 40.31884766 C-31.61394437 35.1930157 -29.84551222 29.71090919 -27.91210938 24.33789062 C-27.57888672 23.43619141 -27.24566406 22.53449219 -26.90234375 21.60546875 C-26.60835693 20.79231201 -26.31437012 19.97915527 -26.01147461 19.14135742 C-24.92564219 16.84257968 -24.01531733 15.54482464 -22 14 C-16.36818182 13.19545455 -16.36818182 13.19545455 -14 14 C-9.37703503 19.34209285 -7.3631258 26.296859 -4.875 32.8125 C-4.00373208 35.09227539 -3.12644822 37.36976387 -2.2421875 39.64453125 C-1.8591748 40.64846924 -1.47616211 41.65240723 -1.08154297 42.68676758 C-0.22282159 45.1472679 -0.22282159 45.1472679 2 46 C1.88655624 43.8535247 1.75893655 41.70779408 1.625 39.5625 C1.52058594 37.77005859 1.52058594 37.77005859 1.4140625 35.94140625 C1.20910156 34.48541016 1.20910156 34.48541016 1 33 C0.01 32.505 0.01 32.505 -1 32 C-1 30.68 -1 29.36 -1 28 C0.65 27.34 2.3 26.68 4 26 C2.68 25.67 1.36 25.34 0 25 C0.16226074 24.42185547 0.32452148 23.84371094 0.49169922 23.24804688 C1.29438794 19.69801912 1.14344118 16.12061766 1.125 12.5 C1.12886719 11.74074219 1.13273437 10.98148438 1.13671875 10.19921875 C1.13035354 6.56468198 0.88715621 3.54862485 0 0 Z M6 11 C5.9729957 12.45823212 5.95360213 13.91660675 5.9375 15.375 C5.92589844 16.18710938 5.91429687 16.99921875 5.90234375 17.8359375 C5.85533666 20.04937142 5.85533666 20.04937142 7 22 C7.66 22 8.32 22 9 22 C9 23.32 9 24.64 9 26 C10.64539322 27.32575833 10.64539322 27.32575833 13 28 C16.13679334 26.8707544 18.33165326 26.03816528 20.171875 23.1796875 C21.11008076 20.71025913 21.20238927 18.8812352 21.125 16.25 C21.09792969 15.05117187 21.09792969 15.05117187 21.0703125 13.828125 C21.04710937 13.22484375 21.02390625 12.6215625 21 12 C18.81024227 15.28463659 18.00193437 18.20696275 17 22 C14.25 22.125 14.25 22.125 11 21 C9.20860084 17.81348089 8.07545283 14.48573239 7 11 C6.67 11 6.34 11 6 11 Z M-22 25 C-22.99 27.97 -23.98 30.94 -25 34 C-22.69 34 -20.38 34 -18 34 C-18.99 31.03 -19.98 28.06 -21 25 C-21.33 25 -21.66 25 -22 25 Z M19 25 C19.66 25.66 20.32 26.32 21 27 C23.22128555 27.02308597 23.22128555 27.02308597 25.625 26.625 C26.44226563 26.51414063 27.25953125 26.40328125 28.1015625 26.2890625 C28.72804688 26.19367188 29.35453125 26.09828125 30 26 C30 25.67 30 25.34 30 25 C26.37 25 22.74 25 19 25 Z M67 31 C65.63467451 32.13701597 65.63467451 32.13701597 65.90234375 35.16015625 C65.91394531 36.44792969 65.92554688 37.73570312 65.9375 39.0625 C65.94652344 40.35285156 65.95554687 41.64320313 65.96484375 42.97265625 C65.97644531 43.97167969 65.98804688 44.97070312 66 46 C66.99 46 67.98 46 69 46 C70.73219928 44.26780072 70.21291761 41.97973192 70.25 39.625 C70.27578125 38.64789063 70.3015625 37.67078125 70.328125 36.6640625 C70.23461804 33.95037079 70.23461804 33.95037079 68.484375 32.1484375 C67.99453125 31.76945312 67.5046875 31.39046875 67 31 Z M111 31 C110.34 32.98 109.68 34.96 109 37 C110.32 36.67 111.64 36.34 113 36 C113.33 34.35 113.66 32.7 114 31 C113.01 31 112.02 31 111 31 Z M139 31 C137.63467451 32.13701597 137.63467451 32.13701597 137.90234375 35.16015625 C137.91394531 36.44792969 137.92554688 37.73570312 137.9375 39.0625 C137.94652344 40.35285156 137.95554687 41.64320313 137.96484375 42.97265625 C137.97644531 43.97167969 137.98804688 44.97070312 138 46 C138.99 46.495 138.99 46.495 140 47 C140.66 46.67 141.32 46.34 142 46 C142.08078641 43.87561661 142.13909141 41.7503677 142.1875 39.625 C142.22230469 38.44164062 142.25710938 37.25828125 142.29296875 36.0390625 C142.19628906 35.03617188 142.09960938 34.03328125 142 33 C141.01 32.34 140.02 31.68 139 31 Z M155 31 C152.77735129 34.33397306 152.70324537 35.59514891 152.6875 39.5 C152.67074219 40.4590625 152.65398437 41.418125 152.63671875 42.40625 C153.04871367 45.34780511 153.70069585 46.20423739 156 48 C157.50156874 44.99686252 157.09281204 42.20932478 157.0625 38.875 C157.05347656 37.59367187 157.04445313 36.31234375 157.03515625 34.9921875 C157.02355469 34.00476563 157.01195312 33.01734375 157 32 C156.34 31.67 155.68 31.34 155 31 Z M82 32 C80.66098208 33.11126659 80.66098208 33.11126659 80.90234375 35.94140625 C80.91394531 37.13636719 80.92554688 38.33132812 80.9375 39.5625 C80.94652344 40.76003906 80.95554687 41.95757812 80.96484375 43.19140625 C80.97644531 44.11824219 80.98804688 45.04507813 81 46 C81.99 46.33 82.98 46.66 84 47 C85.36532549 45.86298403 85.36532549 45.86298403 85.09765625 42.83984375 C85.08605469 41.55207031 85.07445312 40.26429688 85.0625 38.9375 C85.05347656 37.64714844 85.04445313 36.35679687 85.03515625 35.02734375 C85.02355469 34.02832031 85.01195312 33.02929688 85 32 C84.01 32 83.02 32 82 32 Z M125 32 C124.690625 32.928125 124.38125 33.85625 124.0625 34.8125 C121.49020935 38.78785828 119.58317229 39.20837521 115.15625 40.359375 C112.73589662 40.96318477 112.73589662 40.96318477 110 43 C111.88500271 45.31563087 111.88500271 45.31563087 115 45.25 C118.11499729 45.31563087 118.11499729 45.31563087 120 43 C122.625 42.375 122.625 42.375 125 42 C125.33 43.32 125.66 44.64 126 46 C126 41.38 126 36.76 126 32 C125.67 32 125.34 32 125 32 Z M169 32 C169 36.62 169 41.24 169 46 C169.66 46 170.32 46 171 46 C171 41.38 171 36.76 171 32 C170.34 32 169.68 32 169 32 Z " fill="#000000" transform="translate(156,191)"/>
<path d="M0 0 C1.02420044 0.00374634 1.02420044 0.00374634 2.0690918 0.00756836 C2.92929932 0.01667236 3.78950684 0.02577637 4.67578125 0.03515625 C7.41890625 0.05578125 10.16203125 0.07640625 12.98828125 0.09765625 C12.98828125 7.68765625 12.98828125 15.27765625 12.98828125 23.09765625 C13.48328125 22.60265625 13.48328125 22.60265625 13.98828125 22.09765625 C13.92640625 20.83953125 13.86453125 19.58140625 13.80078125 18.28515625 C13.74826239 15.02898713 13.78859119 14.35725333 15.86328125 11.66015625 C19.07648932 9.29750326 20.97241049 8.91731917 24.92578125 8.84765625 C26.23869141 8.80898437 26.23869141 8.80898437 27.578125 8.76953125 C29.98828125 9.09765625 29.98828125 9.09765625 31.7734375 10.45703125 C32.98828125 12.09765625 32.98828125 12.09765625 33.48828125 14.59765625 C32.98828125 17.09765625 32.98828125 17.09765625 30.73828125 18.91015625 C27.98828125 20.09765625 27.98828125 20.09765625 23.98828125 20.09765625 C24.48328125 21.08765625 24.48328125 21.08765625 24.98828125 22.09765625 C25.75140625 21.76765625 26.51453125 21.43765625 27.30078125 21.09765625 C29.98828125 20.09765625 29.98828125 20.09765625 32.98828125 20.09765625 C32.80078125 22.47265625 32.80078125 22.47265625 31.98828125 25.09765625 C28.17923901 27.71637279 24.44605105 27.08934285 20.07421875 26.58203125 C17.98828125 26.09765625 17.98828125 26.09765625 14.98828125 24.09765625 C14.98828125 24.75765625 14.98828125 25.41765625 14.98828125 26.09765625 C6.65494792 26.09765625 -1.67838542 26.09765625 -10.01171875 26.09765625 C-11.44951374 26.32496479 -12.8869882 26.55430575 -14.32421875 26.78515625 C-18.7072596 27.29996692 -21.28032413 26.61634762 -25.01171875 24.09765625 C-26.60788618 20.9053214 -26.52637989 17.56304128 -26.01171875 14.09765625 C-24.14156781 11.66646002 -22.7303353 10.45696452 -20.01171875 9.09765625 C-18.37029334 8.95125124 -16.72190465 8.87669036 -15.07421875 8.84765625 C-13.76130859 8.80898437 -13.76130859 8.80898437 -12.421875 8.76953125 C-10.01171875 9.09765625 -10.01171875 9.09765625 -8.2265625 10.45703125 C-7.01171875 12.09765625 -7.01171875 12.09765625 -6.51171875 14.59765625 C-7.01171875 17.09765625 -7.01171875 17.09765625 -9.26171875 18.91015625 C-12.01171875 20.09765625 -12.01171875 20.09765625 -16.01171875 20.09765625 C-15.68171875 20.75765625 -15.35171875 21.41765625 -15.01171875 22.09765625 C-14.24859375 21.76765625 -13.48546875 21.43765625 -12.69921875 21.09765625 C-10.01171875 20.09765625 -10.01171875 20.09765625 -7.01171875 20.09765625 C-7.01171875 19.06125 -7.01171875 18.02484375 -7.01171875 16.95703125 C-7.01171875 11.67057292 -7.01171875 6.38411458 -7.01171875 1.09765625 C-4.30455633 0.19526878 -2.77395107 -0.02085677 0 0 Z M2.98828125 4.09765625 C2.98828125 10.36765625 2.98828125 16.63765625 2.98828125 23.09765625 C3.64828125 23.09765625 4.30828125 23.09765625 4.98828125 23.09765625 C4.98828125 17.15765625 4.98828125 11.21765625 4.98828125 5.09765625 C4.32828125 4.76765625 3.66828125 4.43765625 2.98828125 4.09765625 Z M-17.01171875 13.09765625 C-17.01171875 14.08765625 -17.01171875 15.07765625 -17.01171875 16.09765625 C-16.35171875 16.09765625 -15.69171875 16.09765625 -15.01171875 16.09765625 C-15.01171875 15.10765625 -15.01171875 14.11765625 -15.01171875 13.09765625 C-15.67171875 13.09765625 -16.33171875 13.09765625 -17.01171875 13.09765625 Z M22.98828125 13.09765625 C22.98828125 14.08765625 22.98828125 15.07765625 22.98828125 16.09765625 C23.64828125 16.09765625 24.30828125 16.09765625 24.98828125 16.09765625 C24.98828125 15.10765625 24.98828125 14.11765625 24.98828125 13.09765625 C24.32828125 13.09765625 23.66828125 13.09765625 22.98828125 13.09765625 Z " fill="#80CBC4" transform="translate(284.01171875,186.90234375)"/>
<path d="M0 0 C1 1 1 1 1.09765625 2.84765625 C1.06510417 4.8984375 1.03255208 6.94921875 1 9 C2.258125 8.938125 3.51625 8.87625 4.8125 8.8125 C7.30452957 8.68994117 8.58301707 8.74222873 10.71875 10.0625 C12.66264876 13.00205422 12.52776651 15.70530987 12.6875 19.1875 C12.78611328 21.09595703 12.78611328 21.09595703 12.88671875 23.04296875 C12.94279297 24.50669922 12.94279297 24.50669922 13 26 C12.0255896 25.99214478 12.0255896 25.99214478 11.03149414 25.98413086 C8.04183957 25.96313497 5.05220059 25.9502687 2.0625 25.9375 C1.04091797 25.92912109 0.01933594 25.92074219 -1.03320312 25.91210938 C-5.76710756 25.89698508 -10.37151359 25.97594946 -15.0703125 26.58203125 C-19 27 -19 27 -21.9375 25.75 C-24.93265731 23.2086544 -25.9302274 21.53824581 -26.4375 17.625 C-26 14 -26 14 -24.125 11.0625 C-19.79361251 8.20378426 -16.06037384 8.37305103 -11 9 C-10.34 9.33 -9.68 9.66 -9 10 C-9 7.03 -9 4.06 -9 1 C-5.68024318 0.1700608 -3.35107416 -0.18113914 0 0 Z M-16 13 C-17.41577477 14.18424326 -17.41577477 14.18424326 -17.0625 17.5625 C-17.041875 18.696875 -17.02125 19.83125 -17 21 C-14.08517222 21.80967438 -12.53886783 22.21845993 -9.6875 21.0625 C-9.130625 20.711875 -8.57375 20.36125 -8 20 C-8 18.68 -8 17.36 -8 16 C-10.65228812 14.92474806 -13.28368454 13.90543849 -16 13 Z M2 13 C0.76732652 14.00836062 0.76732652 14.00836062 0.90234375 16.06640625 C0.91394531 16.89011719 0.92554688 17.71382812 0.9375 18.5625 C0.94652344 19.38878906 0.95554688 20.21507812 0.96484375 21.06640625 C0.97644531 21.70449219 0.98804688 22.34257812 1 23 C1.99 23.495 1.99 23.495 3 24 C4.50662097 20.98675805 4.17770373 18.31713623 4 15 C3.34 14.34 2.68 13.68 2 13 Z " fill="#80CBC4" transform="translate(245,187)"/>
<path d="M0 0 C3.96 0 7.92 0 12 0 C13.32 2.97 14.64 5.94 16 9 C17.65 6.03 19.3 3.06 21 0 C24.63 0 28.26 0 32 0 C31.67 1.32 31.34 2.64 31 4 C30.85966422 5.439735 30.75583143 6.88337149 30.68359375 8.328125 C30.64169922 9.12734375 30.59980469 9.9265625 30.55664062 10.75 C30.51732422 11.575 30.47800781 12.4 30.4375 13.25 C30.39431641 14.09046875 30.35113281 14.9309375 30.30664062 15.796875 C30.20091457 17.86440671 30.09998705 19.93218281 30 22 C30.66 22 31.32 22 32 22 C32 22.99 32 23.98 32 25 C27.71 25 23.42 25 19 25 C19.33 21.7 19.66 18.4 20 15 C19.01 17.31 18.02 19.62 17 22 C15.02 22 13.04 22 11 22 C9.68 19.36 8.36 16.72 7 14 C7 16.64 7 19.28 7 22 C7.66 22 8.32 22 9 22 C9 22.99 9 23.98 9 25 C6.03 25 3.06 25 0 25 C0.33 23.68 0.66 22.36 1 21 C1.09516919 18.15612055 1.13947982 15.34287159 1.125 12.5 C1.12886719 11.74074219 1.13273438 10.98148438 1.13671875 10.19921875 C1.13035354 6.56468198 0.88715621 3.54862485 0 0 Z " fill="#80CBC4" transform="translate(156,191)"/>
<path d="M0 0 C0.66 0 1.32 0 2 0 C2 7.26 2 14.52 2 22 C1.34 22 0.68 22 0 22 C0 19.69 0 17.38 0 15 C-0.66 15 -1.32 15 -2 15 C-2.33 15.99 -2.66 16.98 -3 18 C-4.32 18 -5.64 18 -7 18 C-6.37240135 15.07120629 -5.41377341 12.63904371 -4 10 C-4.495 9.5875 -4.99 9.175 -5.5 8.75 C-7 7 -7 7 -7 3 C-4.13275314 3.57344937 -3.1385485 3.8614515 -1 6 C-0.67 4.02 -0.34 2.04 0 0 Z " fill="#040300" transform="translate(216,192)"/>
<path d="M0 0 C1.875 1.1875 1.875 1.1875 3 3 C3.3125 5.5625 3.3125 5.5625 3 8 C1 10 1 10 -2.9375 10.3125 C-5.54630189 10.23660758 -6.77247043 10.13100187 -9.0625 8.8125 C-10 7 -10 7 -9.875 4.4375 C-8.123229 -0.4424335 -4.60714341 -0.47991077 0 0 Z " fill="#000000" transform="translate(336,205)"/>
<path d="M0 0 C1.32 0 2.64 0 4 0 C3.5003731 7.49440349 1.56235522 13.95650263 -1 21 C-2.65 21.33 -4.3 21.66 -6 22 C-5.54748772 20.18995088 -5.0946633 18.37997944 -4.640625 16.5703125 C-4.16710394 14.67045361 -3.69920396 12.76919171 -3.234375 10.8671875 C-2.97140625 9.79726562 -2.7084375 8.72734375 -2.4375 7.625 C-2.18871094 6.60664063 -1.93992188 5.58828125 -1.68359375 4.5390625 C-1 2 -1 2 0 0 Z " fill="#050300" transform="translate(203,192)"/>
<path d="M0 0 C0.99 0 1.98 0 3 0 C2.44271087 3.34373475 1.64826111 6.03312999 0 9 C0.99 9.66 1.98 10.32 3 11 C3 12.32 3 13.64 3 15 C0.31756099 14.61679443 -1.09801411 13.92847619 -3.3125 12.3125 C-5 10 -5 10 -4.75 6.75 C-4.37875 5.38875 -4.37875 5.38875 -4 4 C-3.34 4 -2.68 4 -2 4 C-2 3.34 -2 2.68 -2 2 C-1.34 2 -0.68 2 0 2 C0 1.34 0 0.68 0 0 Z " fill="#050300" transform="translate(192,195)"/>
</svg>
