<?xml version="1.0" encoding="UTF-8"?>
<svg version="1.1" xmlns="http://www.w3.org/2000/svg" width="1920" height="1080">
<path d="M0 0 C633.6 0 1267.2 0 1920 0 C1920 356.4 1920 712.8 1920 1080 C1286.4 1080 652.8 1080 0 1080 C0 723.6 0 367.2 0 0 Z " fill="#FEFEFE" transform="translate(0,0)"/>
<path d="M0 0 C278.85 0 557.7 0 845 0 C845 21.45 845 42.9 845 65 C866.12 65 887.24 65 909 65 C909 257.72 909 450.44 909 649 C887.88 649 866.76 649 845 649 C845 627.55 845 606.1 845 584 C566.15 584 287.3 584 0 584 C0 605.12 0 626.24 0 648 C-21.12 648 -42.24 648 -64 648 C-64 455.61 -64 263.22 -64 65 C-42.88 65 -21.76 65 0 65 C0 43.55 0 22.1 0 0 Z " fill="#FEFEFE" transform="translate(538,183)"/>
<path d="M0 0 C21.12 0 42.24 0 64 0 C64 149.82 64 299.64 64 454 C342.85 454 621.7 454 909 454 C909 304.18 909 154.36 909 0 C930.12 0 951.24 0 973 0 C973 192.72 973 385.44 973 584 C951.88 584 930.76 584 909 584 C909 562.55 909 541.1 909 519 C630.15 519 351.3 519 64 519 C64 540.12 64 561.24 64 583 C42.88 583 21.76 583 0 583 C0 390.61 0 198.22 0 0 Z " fill="#80CBC4" transform="translate(474,248)"/>
<path d="M0 0 C278.85 0 557.7 0 845 0 C845 21.45 845 42.9 845 65 C566.15 65 287.3 65 0 65 C0 43.55 0 22.1 0 0 Z " fill="#80CBC4" transform="translate(538,832)"/>
<path d="M0 0 C278.85 0 557.7 0 845 0 C845 21.45 845 42.9 845 65 C566.15 65 287.3 65 0 65 C0 43.55 0 22.1 0 0 Z " fill="#80CBC4" transform="translate(538,183)"/>
<path d="M0 0 C16.5 0 33 0 50 0 C53.05652389 7.33565734 56.07969551 14.65362317 58.94140625 22.0625 C59.30223297 22.99307724 59.66305969 23.92365448 60.03482056 24.88243103 C61.21239501 27.92097272 62.38761595 30.96041711 63.5625 34 C64.38905011 36.13616018 65.21562944 38.27230906 66.04223633 40.40844727 C67.78559658 44.91520634 69.52752763 49.42251487 71.26855469 53.93017578 C73.12403206 58.73399014 74.98159879 63.53698899 76.84082031 68.33935547 C79.17722465 74.37464518 81.51007355 80.41129761 83.84030151 86.44897461 C84.7379062 88.77329189 85.63660709 91.09718614 86.53640747 93.4206543 C87.79178764 96.66332896 89.04292358 99.90760942 90.29296875 103.15234375 C90.67015045 104.12396957 91.04733215 105.0955954 91.4359436 106.09666443 C91.77572235 106.98120804 92.1155011 107.86575165 92.46557617 108.77709961 C92.76356613 109.54863876 93.06155609 110.32017792 93.36857605 111.11509705 C94 113 94 113 94 115 C94.66 115 95.32 115 96 115 C96.24898041 114.11969368 96.24898041 114.11969368 96.50299072 113.22160339 C98.46545722 106.46567484 100.82922756 99.9250565 103.359375 93.36328125 C103.78100418 92.26124359 104.20263336 91.15920593 104.63703918 90.02377319 C106.004558 86.45200847 107.37718259 82.88223114 108.75 79.3125 C109.6968232 76.84296598 110.64335419 74.37331992 111.58959961 71.90356445 C113.9482968 65.74989292 116.31127505 59.59787605 118.67572021 53.44641113 C120.28764871 49.2514001 121.89713436 45.05545512 123.50631714 40.85939026 C125.19047856 36.46828658 126.87618625 32.07777751 128.5625 27.6875 C128.86724243 26.89397125 129.17198486 26.1004425 129.48596191 25.28286743 C132.08410988 18.520782 134.68495965 11.75958407 137.33984375 5.01953125 C137.64140381 4.25358643 137.94296387 3.4876416 138.25366211 2.69848633 C139 1 139 1 140 0 C141.56547048 -0.09326716 143.13512772 -0.11745582 144.70336914 -0.11352539 C145.70433121 -0.11344986 146.70529327 -0.11337433 147.73658752 -0.11329651 C148.8251152 -0.10813522 149.91364288 -0.10297394 151.03515625 -0.09765625 C152.6977372 -0.09553383 152.6977372 -0.09553383 154.39390564 -0.09336853 C157.95013069 -0.08775033 161.50629383 -0.07519475 165.0625 -0.0625 C167.46679597 -0.05748734 169.87109292 -0.05292403 172.27539062 -0.04882812 C178.18361504 -0.03777499 184.0918031 -0.02101917 190 0 C190.06850662 0.83096191 190.13701324 1.66192383 190.20759583 2.51806641 C190.86711147 10.51382967 191.52839802 18.50944434 192.19147205 26.50491333 C192.53196012 30.61127389 192.87186098 34.71768094 193.21020508 38.82421875 C194.8031387 58.1519965 196.48371952 77.46714591 198.3190918 96.7734375 C199.18736618 105.92740335 199.98194366 115.08726601 200.76473999 124.24887085 C202.22751674 141.3545734 203.75947026 158.45215654 205.38671875 175.54296875 C205.54213135 177.19111572 205.54213135 177.19111572 205.70068359 178.87255859 C205.894437 180.897013 206.0948491 182.92084581 206.30322266 184.94384766 C206.39522949 185.86601074 206.48723633 186.78817383 206.58203125 187.73828125 C206.70348511 188.90870972 206.70348511 188.90870972 206.82739258 190.1027832 C207.08308787 194.39463043 207 198.70054274 207 203 C191.82 203 176.64 203 161 203 C158.82958364 178.45184253 156.68554413 153.91462105 154.9519043 129.33203125 C154.86584427 128.13532555 154.86584427 128.13532555 154.77804565 126.91444397 C154.67210781 125.43989861 154.56872577 123.96516621 154.46853638 122.49021912 C154.27191654 119.76867596 154.02576377 117.12665974 153.48144531 114.45068359 C152.87086784 111.34268326 152.78120519 108.33336835 152.68359375 105.16796875 C152.62075195 103.22954102 152.62075195 103.22954102 152.55664062 101.25195312 C152.51683648 99.89713808 152.47712409 98.54232033 152.4375 97.1875 C152.39426277 95.81313895 152.35064688 94.43878976 152.30664062 93.06445312 C152.2007021 89.70973331 152.09862811 86.3549414 152 83 C151.34 83 150.68 83 150 83 C149.82934525 83.58727875 149.65869049 84.1745575 149.48286438 84.77963257 C147.51568121 91.45307857 145.32456353 98.02976466 143.04296875 104.6015625 C142.66313339 105.70068466 142.28329803 106.79980682 141.89195251 107.93223572 C140.65924392 111.49722429 139.42348766 115.0611471 138.1875 118.625 C137.33242904 121.09493938 136.47744934 123.56491035 135.62255859 126.03491211 C130.47978344 140.88548563 125.3165259 155.72889776 120.125 170.5625 C119.70485123 171.76305023 119.70485123 171.76305023 119.2762146 172.987854 C115.885577 182.67118382 112.4600431 192.341245 109 202 C99.76 202 90.52 202 81 202 C70.96920686 173.83414935 61.0631288 145.62901553 51.3347168 117.35717773 C50.75955574 115.68633369 50.75955574 115.68633369 50.17277527 113.98173523 C49.43492562 111.83824436 48.69745452 109.69462314 47.96040344 107.55085754 C45.63426949 100.79794286 43.25129763 94.06911435 40.78613281 87.36572266 C40 85 40 85 40 83 C39.34 83 38.68 83 38 83 C38.01160156 83.95261719 38.02320313 84.90523438 38.03515625 85.88671875 C38.04417969 87.14097656 38.05320312 88.39523437 38.0625 89.6875 C38.07410156 90.92886719 38.08570313 92.17023438 38.09765625 93.44921875 C38 97 38 97 37.52734375 99.33203125 C36.6998013 103.51878303 36.66660245 107.74238193 36.5 112 C36.43070084 113.77097859 36.3578912 115.54182395 36.28125 117.3125 C36.25095703 118.09238281 36.22066406 118.87226563 36.18945312 119.67578125 C36 122 36 122 35.52967834 124.17375183 C34.88435377 127.61706307 34.60011511 131.05604365 34.33569336 134.54418945 C34.24769218 135.6571917 34.24769218 135.6571917 34.15791321 136.79267883 C33.96570262 139.23266534 33.7777491 141.67295975 33.58984375 144.11328125 C33.45701428 145.81009444 33.32391828 147.50688679 33.19056702 149.20365906 C32.84103735 153.66024666 32.49512209 158.11710767 32.14996338 162.57403564 C31.73468713 167.9265779 31.31491441 173.27876917 30.89589691 178.63101959 C30.26048953 186.75374964 29.63078898 194.87690404 29 203 C13.82 203 -1.36 203 -17 203 C-17 195.11287408 -16.86164044 187.50675274 -16.1875 179.6875 C-16.05384033 178.07609131 -16.05384033 178.07609131 -15.91748047 176.43212891 C-15.11698938 166.9657461 -14.18378468 157.51298952 -13.24682617 148.05932617 C-12.04970021 135.88254851 -11.02264044 123.69249136 -10 111.5 C-8.82968842 97.55927806 -7.61122287 83.62949474 -6.22143555 69.70874023 C-4.80499077 55.33703118 -3.56881253 40.94892171 -2.3125 26.5625 C-2.19786407 25.24985168 -2.08322815 23.93720337 -1.96511841 22.58477783 C-1.30819568 15.05668052 -0.65385392 7.52836552 0 0 Z " fill="#80CBC4" transform="translate(865,384)"/>
<path d="M0 0 C21.45 0 42.9 0 65 0 C65 21.12 65 42.24 65 64 C86.12 64 107.24 64 129 64 C129 85.78 129 107.56 129 130 C107.88 130 86.76 130 65 130 C65 151.12 65 172.24 65 194 C43.55 194 22.1 194 0 194 C0 172.55 0 151.1 0 129 C21.12 129 42.24 129 64 129 C64 107.55 64 86.1 64 64 C42.88 64 21.76 64 0 64 C0 42.88 0 21.76 0 0 Z " fill="#80CBC4" transform="translate(1188,378)"/>
<path d="M0 0 C21.45 0 42.9 0 65 0 C65 21.45 65 42.9 65 65 C86.45 65 107.9 65 130 65 C130 86.45 130 107.9 130 130 C108.55 130 87.1 130 65 130 C65 108.88 65 87.76 65 66 C43.55 66 22.1 66 0 66 C0 44.22 0 22.44 0 0 Z " fill="#81CBC4" transform="translate(603,442)"/>
<path d="M0 0 C21.45 0 42.9 0 65 0 C65 21.45 65 42.9 65 65 C43.55 65 22.1 65 0 65 C0 43.55 0 22.1 0 0 Z " fill="#80CBC4" transform="translate(1123,572)"/>
<path d="M0 0 C21.45 0 42.9 0 65 0 C65 21.45 65 42.9 65 65 C43.55 65 22.1 65 0 65 C0 43.55 0 22.1 0 0 Z " fill="#80CBC4" transform="translate(733,572)"/>
<path d="M0 0 C21.45 0 42.9 0 65 0 C65 21.45 65 42.9 65 65 C43.55 65 22.1 65 0 65 C0 43.55 0 22.1 0 0 Z " fill="#80CBC4" transform="translate(1123,313)"/>
<path d="M0 0 C21.45 0 42.9 0 65 0 C65 21.45 65 42.9 65 65 C43.55 65 22.1 65 0 65 C0 43.55 0 22.1 0 0 Z " fill="#80CBC4" transform="translate(733,313)"/>
<path d="M0 0 C21.45 0 42.9 0 65 0 C65 21.12 65 42.24 65 64 C43.55 64 22.1 64 0 64 C0 42.88 0 21.76 0 0 Z " fill="#80CBC4" transform="translate(668,378)"/>
<path d="M0 0 C0.33 0 0.66 0 1 0 C1 42.57 1 85.14 1 129 C22.12 129 43.24 129 65 129 C65 129.33 65 129.66 65 130 C43.88 130 22.76 130 1 130 C1 151.12 1 172.24 1 194 C0.67 194 0.34 194 0 194 C0 172.88 0 151.76 0 130 C-21.12 130 -42.24 130 -64 130 C-64 129.67 -64 129.34 -64 129 C-42.88 129 -21.76 129 0 129 C0 86.43 0 43.86 0 0 Z " fill="#BBE3DF" transform="translate(1252,378)"/>
</svg>
